<?xml version="1.0" encoding="UTF-8"?>
<svg version="1.1" viewBox="0 0 1080 1080" width="1080" height="1080" xmlns="http://www.w3.org/2000/svg">
<path transform="translate(171,208)" d="m0 0h110l17 32 13 23 12 23 13 23 12 23 13 23 18 34 13 23 18 34 11 19 9 16 1-273h118v550h-111l-8-14-8-16-13-24-13-23-17-32-12-22-13-24-13-23-17-32-12-22-13-24-10-18v-2h-2v275h-116z" fill="#83AEB9"/>
<path transform="translate(570,208)" d="m0 0h128l1 308v116h159l51 1v125h-339z" fill="#234B55"/>
<path transform="translate(431,208)" d="m0 0h118v550h-111l-8-14-6-11-2-38-1-5v-64l4-25 3-9v-11l2-5v-9l-1-6 3-4v-6l-2-6-1-16-13-3-6-4-15-11v-1l7-2 4-3h4v-2h-12l5-4 7-2-1-8 4-2 4-3 1-3v-10l2-5h2l8 15z" fill="#234B55"/>
<path transform="translate(570,208)" d="m0 0h128l1 308v116h-1l-1-96-4-11-1-10-4-10-8-9v-2l-7-2-8-6-3-1-14-1h-14l-11 3-10 4-11 8-9 9-6 11-3 5-2 1-1 5-3 6-2 16-1 9-3 12-1 8h-1z" fill="#83AEB9"/>
<path transform="translate(431,208)" d="m0 0h118v172l-13-2-14-5-3-3-7-2 3 5-10 6-19 9-7 3-13 2-2 1-3 6v3 2l5-1 1 5-1 5-2 4-6 3-6-3-7-6v-2l-6 1-3 4-1 1-1 10-1 4 1 1 3-11 4-8 1 4-2 9-1 3h2v6l-5 3-2 5 1 4 4-6 6-2 3-6 8-4-1 4-2 3h-2l-2 5-4 7 4 2-5 5-5 2 1 2-2 1v3h-2l1 3h-2v7l1 5 7 1 7-1 3-1 1 3-2 8-3 1-3 3-10 3-1 2-2-3 2-3-1-4-3-10z" fill="#82ADB8"/>
<path transform="translate(634,483)" d="m0 0h14l14 1 9 5 4 3 5 2-3 1-8-3-7 1v2l5 1 8 4 8 10 5 11 3 11-1 3-10-1-3-1v-2l4-2v-2l-12 1 1 5 2 2-1 1 1 8 4 2h8l-2-2 7-1h4l2 11v13l-7 24-4 10v7l-4 1-6 7-1 5v9l1 5v7l12 12 3 1 1-7h2l1-2-1 10 2-7h2l2-10h3l-1 11-6 11-6 5h-3l-1 1h-5l1 5h3l1 4-5 1-5-4-1-2-17 4 4 3 16 2 4 1 1 6-8 1-3-1-10-1-2 1h-5l-3 2-6 1-3 3v2h2v-2l3 1v2l2 1-4 7-26-1v7l-5-1-2-9 3-1v-2l-4-1v-5l-6 1v4h-13v-4l-19-1-1 2-1-2v-110l3-18 2-5 1-17 3-9 6-12 3-5 6-9 10-10 10-7 15-5z" fill="#234B55"/>
<path transform="translate(689,386)" d="m0 0h2l-1 9 2 2 6 2 1 117v116h-1l-1-96-4-11-1-10-4-10-8-9v-2l-7-2-8-6-3-1-14-1h-14l-11 3-10 4-11 8-9 9-6 11-3 5-2 1-1 5-3 6-2 16-1 9-3 12-1 8h-1v-188l6-1 8 11 5 4 2 1v-3l4 2 13 7 1-3 5-3 5-6 3-1 2 3v4h10l16-6 3 1-15 8-1 14h6l11-7 12-13 5-6 10-5 3-6z" fill="#B0D9E3"/>
<path transform="translate(832,632)" d="m0 0h26l51 1v125h-41l2-6v-6l-1-2-8-3-2-6-3-7-2-5 2-12-1-4v-11l2-12v-11h-2l-1 3-1-3v-25l2-10 2-5-17 1-2 4-2 1-1 4 5 2 2 2-1 16-3 12h-2l-3-9-1-10-1-1-3 3-4 15-2 10-5 8-2 10-4 6-4 1-9-7-14-12-3-2-3-10-11-2-6-5-5-7-8-6-3-5v-2h-2l-1-3h3l1-4h-6l-1-5 1-4h-2v2h-3v-2l-8 1-3-2z" fill="#83AEB9"/>
<path transform="translate(456,428)" d="m0 0 5 3 3 5v2h8l1 4-2 3h-2l6 7 2 1 5 9 2 5-3 3v3l7 1v2h2l-1 8 4 1 6 7-3 2-4 1 11 1 2 2-1 4-5 2-1 3 6-1 4-1 6 1 5 5v2l5 2 4 3v9l-2 8-1 1-41 1h-32l-6 2-5 9v5l-1 3-1 5-1 3h-6l1 7 1 3h8l6 3 10-2h3l5 6v4h-7l-1 3h-2v-3l-6 1-3-1-3 1h-14v2h2l1 5-2 9 1 4 2-2 4 1-1 4-2 1-6 13 3-2 5-5 4-1h2l1-2 9-1 4 3v2l6-3 3-5 9-4 8 1 6 4 3 4v2l4 1-1 9-1 3-2 3-2 4-5-1 2-4 4-9-4 4-4 7h-12l1-5-10-1-7-1-12 4-7-1-4 3-8 2-1 27h-1l-1-17v-18l4-25 3-9v-11l2-5v-9l-1-6 3-4v-6l-2-6-1-16-13-3-6-4-15-11v-1l7-2 4-3h4v-2h-12l5-4 7-2-1-8 4-2 4-3 1-3v-10l2-5h2l8 15 1-5 2 4 3 7-1 4-1 3h2l10-4h2l2-5h2l1-9-3 2-11 1-4-2-1-8 3-10 1-1-3-2 9-3 4-4-3-2 1-4 5-8 4-4z" fill="#35626D"/>
<path transform="translate(662,498)" d="m0 0h5v2h6l8 7 7 14 3 11-1 3-10-1-3-1v-2l4-2v-2l-12 1 1 5 2 2-1 1 1 8 4 2h8l-2-2 7-1h4l2 11v13l-7 24-4 10v7l-4 1-6 7-1 5v9l1 5v7l12 12 3 1 1-7h2l1-2-1 10 2-7h2l2-10h3l-1 11-6 11-6 5h-3l-1 1h-5l1 5h3l1 4-5 1-5-4-1-2-17 4 4 3 16 2 4 1 1 6-8 1-3-1-10-1-2 1h-5l-3 2-6 1-3 3v2h2v-2l3 1v2l2 1-4 7h-4v-2h-8l3-6h3v-5l1-1-3-2 7-12 4-4 14-7h10l-1-13 1-20-2-1 1-4-2-9 3-4 2-4-3-2h-11l-6 1 4 2v1l-11 2-1 4 1 5h-2l-1 2-1 3-1 7h2l4 18 3 17-6-2-12-11-2-9-3-5-1-3 1-2 4-2v-5h2l-5-9-2-3-3-10-5-17-5-12v-7l4-12 7-9 10-3 5-2 14-2 1 7-7 8-10 5-2 2 1 6 1 5 2 6 1 2 5-2 3-3h8l6-1 6 1-1-3 1-2 5 1 1 5 5-1 4 3 1-9 6-1-4-9-8-10-2 4-1-2-5-2-9 2-6 2 1-6 2-6 4-4v-7l1-4-2-4h-3l-7-3v-5l3-7 4-10z" fill="#82ADB8"/>
<path transform="translate(631,279)" d="m0 0 5 2v3l8 2-1 6-3 4 1 10 1 5h3v-4h5l4-3h3l1 4 4 2v1h-11l3 3 6 2h7l6-5 1-9 3 1v36l2 4-1 2h-3l-1 5h-1l-1-11-2-4h-8l-9 1-4-7-5-3-12 1-9 2 2 4 12 3 10 4 1 2-12 2h-19l-2-1v-4l-4 1v-2l-10 3-4 9-2 2v8l4 6-2 4v7h-2l-9-27-1-5h-2v2l-9-1-4-4v-12l1 2h4l2-5 7 1-1-11v-10l4-11 8-5 7-1 3-6-2-1v-2l7-1 13 3 5-1z" fill="#98C5D1"/>
<path transform="translate(252,285)" d="m0 0h18l8 6 6 9 2 14-2 3-2-2-2 1v4l3-1 1 9-3 7-7-1 7 2-2 10-2 2-10-2-6-4-6-3-3 1 5 11 3 5h2l-1 9 5 16 4 12v4h2l2-6 3-4 4-11 4 1 1 6-3 9h7l1-3 5 1 1 4-2 4 1 5-1 11 1 3-5-2h-3l2 3-2 1h-8l-3-1-4 1-2-3-3 3-6-3-5-2 1-2 1 1 9 1-3-6v-2l2-1-1-8-2-2h2l-5-16-5-15 2-1-1-2-4-2v-3l-8-16-1-4-3-1-5 4v-7h4l-1-2-1-10v-20l2-6 3-5z" fill="#AFD8E2"/>
<path transform="translate(528,390)" d="m0 0h4l-2 4h-2l-1 3h-2l-1 3h-2l-1 4h-2v2l-4 4-2 4 8 1 7-3 11-3h10v66l-2 6h-2l-1 5-4 4-1-15h-1l-2 12-3 2-3-2-8 1-1-1v-7l3-15 1-9h-4l-2-3v-3l4-2 10-2-10-1-6 4-4-1 1-3-2-1-7-4v-2l-8-1-6-1v-4h4l-4-4-8 4-5 2v-18h2l1-3 13-8 5-2 6-2-1 2h-2l1 5 6-5h2l2-4 6-5z" fill="#36636E"/>
<path transform="translate(421,618)" d="m0 0h1v72l1 5 1 36-2-3-13-24-13-23-17-32-12-22v-2h15l18 1h6l4 2h6l4-1z" fill="#83AEB9"/>
<path transform="translate(624,552)" d="m0 0 1 2-4 17-2 2h-2v11l3 5v2l3 1 3 10 4 2 8-5 4-1 5 4 8-1h2 7l8 3 4 1 7-2 1 5-4 1-6 7-1 5v9l1 5v7l12 12 3 1 1-7h2l1-2-1 10 2-7h2l2-10h3l-1 11-6 11-6 5h-3l-1 1h-5l1 5h3l1 4-5 1-5-4-1-2-17 4 4 3 16 2 4 1 1 6-8 1-3-1-10-1-2 1h-5l-3 2-6 1-3 3v2h2v-2l3 1v2l2 1-4 7h-4v-2h-8l3-6h3v-5l1-1-3-2 7-12 4-4 14-7h10l-1-13 1-20-2-1 1-4-2-9 3-4 2-4-3-2h-11l-6 1 4 2v1l-11 2-1 4 1 5h-2l-1 2-1 3-1 7h2l4 18 3 17-6-2-12-11-2-9-3-5-1-3 1-2 4-2v-5h2l-5-9-2-3-3-10-5-17-5-12v-7l4-12z" fill="#36636E"/>
<path transform="translate(205,226)" d="m0 0 4 4v2l7 1 8 4 9 11 2 8v12l-5 16-8 5-12 4-4 4-3-6-9-4-5-4-6-10-4-9 1-9 6-15 3-5 12-3 2-4z" fill="#98C5D1"/>
<path transform="translate(634,483)" d="m0 0h14l14 1 9 5 4 3 5 2-3 1-8-3-7 1v2l5 1 8 4-2 1-6-1v-2l-6 2-5 9-3 10-2 6 7 2 4 1 2 6-1 7-2 5-3 1-1 6-2 6 12-5 4 1 5 2v-3l4 2 8 10 2 8-6 1v10l-3-1v-2h-7l-1-4-5-2-1 4 2 1-4 1-6-1-7 1-5 1-5 4-3-1-3-6v-6l-2-4 1-4 5-4 8-4 5-6-1-5 1-2-6 2-20 4 1-2h2l-1-3 5-4 1 2 5-2 10-3v2l2-1-1-5-5 1h-3l-3-1-5 5h-2l3-9 4-5 2-6-1-4 2-4h2l-1-15 2-4 1 3h3l-3 7 2-1 1 2 3-3 6-13v-1l-10-1-3 2v-2l-8 2-2 4-6 7-2 5-3-2 2-6 2-3-10-2-2-3 12-4z" fill="#36636E"/>
<path transform="translate(470,289)" d="m0 0 14 2 11 7 5 5 4 7 2 11-1 12-3 1v5h-2l-2 5h-1v5l3 2v6l3 3-1 3-5 3h-5l-2 4-12 8-5 4-3 8h-3v-2l-3-1-2-3-5 1-4-4 1-5-2-1-1 6-2-1v-10l4-7 6-1 4 2 1 2 9-1v-2l2-1 3-8 1-14 4-1 3-1-1-7-7-2h-12l-1-6 1-1h12l5 3v-11l3-1-1-6-4-3-13-4-7 1-6 4-3-1v-2l2-1 2-4 3-3h5l2 2v-3l-4-2 7-1z" fill="#36636E"/>
<path transform="translate(185,790)" d="m0 0h37l9 4 4 7v7l-3 6-6 4 8 4 4 5v11l-3 5-6 5-7 2h-37zm13 9v15h18l5-3 1-1v-7l-5-4zm0 24v18h18l7-2 3-5-1-7-4-3-4-1z" fill="#0693B7"/>
<path transform="translate(248,790)" d="m0 0h39l10 5 4 8v9l-4 8-6 4h-3l12 19 4 7h-14l-7-10-7-12-15-1v23h-13zm13 9v18h22l5-5v-8l-5-4-5-1z" fill="#0893B7"/>
<path transform="translate(380,790)" d="m0 0h15l14 24 11 19v-43h12v60h-15l-6-9-12-22-7-12-1 43h-11z" fill="#0A94B7"/>
<path transform="translate(717,790)" d="m0 0h38l7 3 5 5 2 4v11l-4 7-6 4h-2l6 11 9 14v1h-14l-12-19-2-3-15-1v23h-12zm13 9-1 1v17h22l5-4 1-6-3-6-8-2z" fill="#0592B7"/>
<path transform="translate(482,669)" d="m0 0 2 3 8 24 3 12 4 10v22l7 9-1 7-1 1-30 1h-36v-1h35l-1-25-4-7 1-6 3-8 3-22z" fill="#83AEB9"/>
<path transform="translate(332,789)" d="m0 0h16l9 3 8 7 4 8 2 10-1 12-4 9-7 8-9 4-5 1h-11l-10-3-9-8-4-8-1-3v-18l3-9 7-8 8-4zm2 10-6 4-4 5-2 8v7l3 10 4 5 7 3h8l8-4 5-8 1-13-3-10-7-6-2-1z" fill="#0793B7"/>
<path transform="translate(843,790)" d="m0 0h13v24h26v-24h13v60h-13v-26h-26v26h-13z" fill="#0993B7"/>
<path transform="translate(697,405)" d="m0 0h1l1 111v116h-1l-1-96-4-11-1-10-4-10-8-9v-2l-7-2-8-6-3-2h2l1-6h1v7h5l2 2 3-8 6-31 6-20 4-12z" fill="#83AEB9"/>
<path transform="translate(590,790)" d="m0 0h13v24h26v-24h12v60h-12v-26h-26v26h-13z" fill="#0693B7"/>
<path transform="translate(203,676)" d="m0 0h12v13l3 7v9l-4 4-4-1v2l4 1-2 10-1 4h8l4 1v9h-9v2l-5 3-14-2-8-4-6-2-2-3 2-1 5-1-5-1v-3l1 2 9-2h-2v-2l3-1-4-2 3-1-3-2 2-2-2-2 2-3v-2h-5l3-1 1-5 2-7v-4l-5-3 2-5 8-4z" fill="#AFD8E2"/>
<path transform="translate(239,322)" d="m0 0 6 4 7 3h2l1-3 6 1 3 3 6-1 2-1v-2h9l2 6-3 3h-4l5 1-2 10-2 2-10-2-6-4-6-3-3 1 5 11 3 5h2l-1 9 5 16 4 12v4h2l2-6 3-4 4-11 4 1 1 6-3 9h7l1-3 5 1 1 4-2 4 1 5-1 11 1 3-5-2h-3l2 3-2 1h-8l-3-1-4 1-2-3-3 3-6-3-5-2 1-2 1 1 9 1-3-6v-2l2-1-1-8-2-2h2l-5-16-5-15 2-1-1-2-4-2v-3l-8-16-1-4-3-1-5 4v-7h4l-1-2z" fill="#AFD8E2"/>
<path transform="translate(652,790)" d="m0 0h13l1 40 3 7 6 3h8l6-4 2-3 1-6 1-37h12v44l-4 8-7 6-10 3h-12l-11-4-6-7-2-5-1-8z" fill="#0793B7"/>
<path transform="translate(546,789)" d="m0 0h16l9 3 5 5 4 6v3l-6 2h-5l-2-5-5-2-2-1h-12l-6 4-4 8v15l4 9 8 4h8l7-3 5-7 9 2 2 1-1 5-7 8-8 4-5 1h-11l-10-3-6-4-6-8-3-10v-13l3-10 4-6 8-6z" fill="#0793B7"/>
<path transform="translate(799,789)" d="m0 0h17l10 4 7 8 1 5-7 2-5-1-4-5-5-2h-11l-7 4-3 6-1 13 2 8 4 6 7 3h8l6-3h2l2-5 1-2 6 1 6 2-2 6-4 5-8 5-8 2h-11l-10-3-7-5-5-8-2-6v-19l4-10 5-5 8-5z" fill="#0793B7"/>
<path transform="translate(441,790)" d="m0 0h13l12 19 2 1 2-5 9-14 1-1h13l-6 11-11 17 7 12 12 19v1h-13l-7-10-7-11v-2l-4 4-12 19h-13l2-5 17-26-2-5-15-22z" fill="#0693B7"/>
<path transform="translate(659,607)" d="m0 0h11l4 3-2 4-3 4 2 12v2 33l-13 2-8 5-3-1 2-2-3-16-3-13v-5h-2v-9l3-4v-8l10-3-1-2z" fill="#254D57"/>
<path transform="translate(647,224)" d="m0 0 6 3 10 9 7 8 5 10 5 6v4l-4-2-9-11-8-5-13-6v-5l-2 2-25 1h-2l-13 5-3 7-2-2-3 4-4 5h-2l-2 5-5 2-7 14-5 9h-1v-37l10-14 7-5h3l1 8 10-1h4l5-3 9-1 6-2h3l1-3h6l3 1h8v-5z" fill="#AFD8E2"/>
<path transform="translate(420,466)" d="m0 0h2l8 15 1-5 2 4 3 7-1 4-1 3 2 3-2 3h-2l-1 16-1 11-5 1-9-2-6-4-15-11v-1l7-2 4-3h4v-2h-12l5-4 7-2-1-8 4-2 4-3 1-3v-10z" fill="#36636E"/>
<path transform="translate(202,236)" d="m0 0h7v3l-1 2 7 1 2 1v2h2l7 9 1 10-3 9-7 6-9 4-4-2-10-7v-2h-2l-3-7-1-6 4-10 5-7 6-1z" fill="#B1DAE4"/>
<path transform="translate(840,633)" d="m0 0h17l-3 15v25h3l1 11-2-1-4 10-4 6-6 1-2-8-6-8-2-8-1-12-1-6-3 3 1-4 5-4v9l3 13h2l1-8 2-12v-8l-6-4 1-5h2z" fill="#36636E"/>
<path transform="translate(908,645)" d="m0 0h1v69h-2l-1-4-3-1v-2l-2 1h-8l-3-2v-16l2-14 6-15 6-11z" fill="#98C5D1"/>
<path transform="translate(636,303)" d="m0 0 2 2 3 12-1 6-1 1-7 1-4 2h-8l-2-1-7 4h-10l-7 5-3 11-3 1-4-4-3-10 1-3 4-1 2-10 3-2 11-1 18-1 5-5 5-1 2-1 2-4z" fill="#B1DAE4"/>
<path transform="translate(604,496)" d="m0 0 2 1-6 8-2 4-4 6-3 7 3-1-2 6-1 4h3l3-3 2 4 3-3v11l-3 5h-2l-1 2-1-3h-2v2h-3l-2 6-3 2-2-5-5 8-2 15-1 16-3 10 2 1-1 8 1 3-3 8h-1v-37l3-18 2-5 1-17 3-9 6-12 3-5 6-9z" fill="#35626D"/>
<path transform="translate(671,646)" d="m0 0h3v2h2l3 9v4h-4l1 7 6 5 2-1v4l-5 1-5-4-1-2-17 4 4 3 16 2 4 1 1 6-8 1-3-1-10-1-2 1h-5l-3 2-6 1-3 3v2h2v-2l3 1v2l2 1-4 7h-4v-2h-8l3-6h3v-5l1-1-3-2 7-12 4-4 14-7h10l-1-13z" fill="#83AEB9"/>
<path transform="translate(260,736)" d="m0 0h15l4 5 8 14v2h-49v-8l2-6 4-4 15-2z" fill="#B0D9E3"/>
<path transform="translate(648,695)" d="m0 0h15v2l9 2 1 1v-1h6l3 3-2 4v-2l-6 2h-8v3l4 1v2l2-1h9l3 1v6l-18 1-4-1h-2l-2 5-5 4h-4l-3 10h-1l1-10 2-12v-12h-3v7h-5v-6l2-1 2 1 1-4z" fill="#37646F"/>
<path transform="translate(618,325)" d="m0 0 9 2-1 2h-3l2 4 12 3 10 4 1 2-12 2h-19l-2-1v-4l-4 1v-2l-10 3-4 9-2 2v8l4 6-2 4v7h-2l-9-27-1-5 5 1 3-11 8-6h10z" fill="#98C5D1"/>
<path transform="translate(441,412)" d="m0 0 1 4-2 9-1 3h2v6l-5 3-2 5 1 4 4-6 6-2 3-6 8-4-1 4-2 3h-2l-2 5-4 7 4 2-5 5-5 2 1 2-2 1v3h-2l1 3h-2v7l1 5 7 1 7-1 3-1 1 3-2 8-3 1-3 3-10 3-1 2-2-3 2-3-1-4-3-10v-46l3 1 3-11z" fill="#81ACB7"/>
<path transform="translate(363,598)" d="m0 0 7 1 4 5 1 14 2 1v3l5-1 5-5 10-1 25 1-2 11-6 2-7-1-1-1h-11l-29-2-4-7 1-5-1-5 1-5z" fill="#98C5D1"/>
<path transform="translate(594,455)" d="m0 0h2l-1 5-5 7-1 13-4 10-6 7-7 4h-2v-38l4-2 8 1 5 2h2l2-4z" fill="#83AEB9"/>
<path transform="translate(633,347)" d="m0 0 2 3v2l15 1-1 3-6 2h-17l1 6 12 3 9 2-2 4-7 2h-13l-8-4-4-9-3-5v-6l3-3 16 2 3-1z" fill="#98C5D1"/>
<path transform="translate(647,224)" d="m0 0 6 3 10 9 7 8 5 10 5 6v4l-4-2-9-11-8-5-13-6v-5l-2 2-25 1h-4l-1-3 11-3h3l1-3h6l3 1h8v-5z" fill="#AAD4DF"/>
<path transform="translate(239,322)" d="m0 0 6 4 7 3h2l1-3 6 1 3 3 6-1 2-1v-2h9l2 6-3 3h-4l5 1-2 10-2 2-10-2-6-4-6-3h-5l-3-9-5 1-1 4-5 4v-7h4l-1-2z" fill="#97C4CF"/>
<path transform="translate(621,401)" d="m0 0 3 3v4h10l16-6 3 1-15 8-1 14 6 1-5 4-2 1h-7l-1-2-5-3-9-3-1 4-1-7-1 1-1 2h-2l1-5 4-2 4-8-1-2z" fill="#98C5D1"/>
<path transform="translate(749,654)" d="m0 0h9l17 2 5 4 1 4v6l3 5 3 7-1 4-5-1-3-6v-2l-11-2-6-5-5-7-7-5z" fill="#95C1CD"/>
<path transform="translate(702,668)" d="m0 0 1 2-2 3h-2l-2 4-3 3h-2l1 8-3 2-3-1v2l-4-1-1-1-18 1v1h-17l1 5h-2l-3-3v2h-2l-1-3 3-3 9-2 1-1h6l2-1 9 1 8 1h3l-1-6-20-2-5-3 1-2 13-3 4-1 1 3 4 2 3 1h3l-2-2-3-2 1-2h7l2 4 7-1 2-4z" fill="#35626D"/>
<path transform="translate(667,554)" d="m0 0 4 1 5 2v-3l4 2 8 10 2 8-6 1v10l-3-1v-2h-7l-1-4-5-2-1 4 2 1-4 1-6-1-7 1v-2h-7l3-3 11-4h16l5 3-3-12-1-2-5 1-2 1h-7v-2l-6-1 4-3 5-1v-2z" fill="#34616C"/>
<path transform="translate(429,495)" d="m0 0h6v3l-1 2h-2l-1 16-1 11-5 1-9-2-6-4-4-3 1-3h6l3-2 1-8 3-1-1-4 2-5h3 5z" fill="#234B55"/>
<path transform="translate(548,622)" d="m0 0h1v80l-2-4-6-9v-42l2-11 4-10z" fill="#83AEB9"/>
<path transform="translate(301,248)" d="m0 0 4 4 12 23-3 5-7 1-8-4-5-7-2-9 5-10z" fill="#98C5D1"/>
<path transform="translate(636,686)" d="m0 0 1 2 3 2-2 6h-3l-2 5 7 1-1 2-21-1v7l-5-1-2-9 3-1v-2l-4-1v-5l-6 1v4h-10l2-7h38z" fill="#2C5761"/>
<path transform="translate(441,409)" d="m0 0 4 1 6 7 5 2 3 1 5-2-5 5-3 1-1 5-7 4-3 6-6 2-4 6h-1l-1-10h2l2-3v2l3-2 1-6-3 1 2-9 1-7-5 14-2 5-2-4 1-2 2-13z" fill="#36636E"/>
<path transform="translate(188,704)" d="m0 0 3 1v2h13l-4 2 2 2-9 2 3 4-1 2h2l3 5v2h2l1 5 10 2 1 4-5 3-14-2-8-4-6-2-2-3 2-1 5-1-5-1v-3l1 2 9-2h-2v-2l3-1-4-2 3-1-3-2 2-2-2-2 2-3v-2h-5z" fill="#98C4D0"/>
<path transform="translate(570,691)" d="m0 0h22l-1 5 13-1 1-2-2-1 1-1h6l1 5 3 1v2l-4 3h-40z" fill="#234B55"/>
<path transform="translate(671,630)" d="m0 0h2l1 5v7l12 12 3 1 1-7h2l1-2-1 10 2-7h2l2-10h3l-1 11-6 11-6 5h-3l-1 1h-5l-1 4-4-5v-5l3-1 2 1-3-10v-3h-2v-2h-3l-1-15z" fill="#35626D"/>
<path transform="translate(431,568)" d="m0 0 3 4v2h8l6 3 10-2h3l5 6v4h-7l-1 3h-2v-3l-6 1-3-1-3 1h-14l-1 2-1-7 2-5z" fill="#36636E"/>
<path transform="translate(309,420)" d="m0 0 10 1 16 6 4 3-1 3-7-2-9 2v4l7 7 1 3-4 1-7-8-6-2-5-3v-7l1-2-3-1 2-3 1-1z" fill="#ACD6E0"/>
<path transform="translate(489,296)" d="m0 0 5 1 5 5 5 8 2 11v5l-2 2h-3l-1 4h-6l-3-10 5-2-5-12-4-4v-2h2l1-4z" fill="#244C56"/>
<path transform="translate(495,252)" d="m0 0h7l5 5v9l-4 5-4 2h-8l-5-6-1-6 5-7z" fill="#B1DAE4"/>
<path transform="translate(634,496)" d="m0 0h1v5 3l-5 11-3 12h-3l-4 14-6-1-1-2 3-16 3-17 2-2 1 5 2-4h3v5h2l3-4z" fill="#35616C"/>
<path transform="translate(612,291)" d="m0 0h11l6 3 2 5-2 6-5 3-9 1-2-2v-3l-7 4-7 1 1-4 4-4 11-3-2-2-3-1z" fill="#83AEB9"/>
<path transform="translate(191,745)" d="m0 0h11l4 1 7-1 5 2 1 4-3 2v4h-35l1-3 6-3z" fill="#AFD8E3"/>
<path transform="translate(641,638)" d="m0 0h2l5 18 2 14-6-2-12-11-2-11 3-3 6-2z" fill="#83AEB9"/>
<path transform="translate(513,611)" d="m0 0h7l-1 4 2 1 1-5 4 2 2 3 1 5 1 3 12 2 3 1 1-3h2l-2 8-1-3h-9l-1 3-7 2 1-3h-13l2-4v-2l-5-1v-3l1-4-2-5z" fill="#35626D"/>
<path transform="translate(675,526)" d="m0 0h7v4l-5 1v2l13 1 2-1v9l-5 3h-3l2 2h-10l-5-3-1-8v-2l-1-1v-5z" fill="#37646F"/>
<path transform="translate(610,477)" d="m0 0h47v1l-33 1h-14v11l2-1 1-8 11-1h38v4h-28l-11 3-10 4-4 3-2-1 1-1 1-14z" fill="#8BB7C2"/>
<path transform="translate(597,579)" d="m0 0h2l1 9-2 15v7l1 2-3 11-2 5v6l-5-1v-11h-2l-2 9-2-4-2 4v-6l8-15 2 2 4-20 1-6z" fill="#36636E"/>
<path transform="translate(244,330)" d="m0 0h3l4 9 6 12 3 5h2l-1 9 5 16 4 12v4l2 1h-3l-5-2 2-1-5-16-5-15 2-1-1-2-4-2v-3l-8-16-1-4h-2v-5z" fill="#9AC7D3"/>
<path transform="translate(585,405)" d="m0 0 6 3v-3l4 2 1 4 5 2 6 4-1 5-8 4-4-1-4-6v-2l-4-2-3-3v-3l2-1z" fill="#98C5D1"/>
<path transform="translate(680,495)" d="m0 0 4 1 8 10 7 10v116h-1l-1-96-4-11-1-10-4-10-8-9z" fill="#58848F"/>
<path transform="translate(610,701)" d="m0 0 2 2-3 3-1 5-2-3-8 1h-28v-7z" fill="#36636E"/>
<path transform="translate(512,368)" d="m0 0 7 1 5 4 12 4 10 2 3 1v5l-7-1-3-3h-11l-2-3-6 1-3 2-11 2v-3l-3-1 9-5 2-2z" fill="#35626D"/>
<path transform="translate(304,252)" d="m0 0 3 4 8 16-3 3-9-1-3-3-2-5v-6l4-6z" fill="#B1DAE4"/>
<path transform="translate(235,726)" d="m0 0h10l12 2 15 2 2 3-7 1h-34v-7z" fill="#9AC7D2"/>
<path transform="translate(589,659)" d="m0 0 9 5h3l9 3v1l-10 1 2 2 8 2 5 3v2h-10l-12-3-6-4-1-5 9 2-7-4z" fill="#35626D"/>
<path transform="translate(634,483)" d="m0 0h14l6 1v1l-6 2-2 1v-2l-8 2-2 4-6 7-2 5-3-2 2-6 2-3-10-2-2-3 12-4z" fill="#35626D"/>
<path transform="translate(676,561)" d="m0 0 2 3 2 8v4l-5-2-10-3h-7v2l-5 1 1-7 4-4h3v2l10-3z" fill="#83AEB9"/>
<path transform="translate(753,687)" d="m0 0 27 1 1 6-2 9-1-3 1-5h-26l-1-7z" fill="#396671"/>
<path transform="translate(540,412)" d="m0 0h4l-1 3-17 9-8 7-4 8-4-4-1-8 3-7 4-3 2 1-3 10 4-2 1-2h2v-2l7-5 7-4z" fill="#234B55"/>
<path transform="translate(548,527)" d="m0 0h1v79h-1l-1-16v-17l-4-8 1-20 3-6z" fill="#83AEB9"/>
<path transform="translate(582,369)" d="m0 0 2 8 3 6v15l-2 2-2-6h-3l-5-10 2-9z" fill="#AAD4DF"/>
<path transform="translate(576,557)" d="m0 0h1v11l-1 4-1 16-3 10 2 1-1 8 1 3-3 8h-1v-37l3-18z" fill="#3E6B76"/>
<path transform="translate(260,736)" d="m0 0h15l2 3-16 4-9 1-5 4-8 1v-5l5-5 15-2z" fill="#98C5D1"/>
<path transform="translate(697,463)" d="m0 0h1v46l-4-2v-2l-3-1 1-13z" fill="#AAD4DF"/>
<path transform="translate(665,695)" d="m0 0h18l1 14-1 3h-13v-2l-4-1v-3l7-1 8-1v-3l-7-1-2 1v-2l-9-2z" fill="#36636E"/>
<path transform="translate(570,469)" d="m0 0 7 4 5-1 3 3 2 5-4 1-2-1v8l-5 3-2-2 5-2-1-4-6 2h-2z" fill="#98C4CF"/>
<path transform="translate(602,242)" d="m0 0 2 1-3 7-2-2-3 4-4 5h-2l-2 5-5 2-7 14h-1l-1-5-2 1 2-5 1-2h2l2-5 4-2 4-7 12-9z" fill="#97C4D0"/>
<path transform="translate(629,229)" d="m0 0h6l3 1h5l2 2-1 5-25 1h-4l-1-3 11-3h3z" fill="#AED7E1"/>
<path transform="translate(659,573)" d="m0 0h16l4 7h-4v-2l-7-2-1 4 2 1-4 1-6-1-7 1v-2h-7l3-3z" fill="#234C56"/>
<path transform="translate(699,632)" d="m0 0h22l6 2h8v2h3v-2h2v6l1 2 5 1v5h-3v2h2l2 5h-3v2l-4 1 1-4-1-5 1-5-4-1v-2l-9-2-5-3-3-2-21-1z" fill="#45717C"/>
<path transform="translate(460,347)" d="m0 0h13l2 2-2 4-1 5-4 3-7 1-3-2v-2h6l4-4h-11l-3-2 2-4z" fill="#396671"/>
<path transform="translate(495,252)" d="m0 0h7l5 5v9l-4 5-4 2h-8l-5-6-1-6 5-7zm-2 3-4 5 1 7 4 4 7-1 3-5 1-4-4-6z" fill="#98C5D1"/>
<path transform="translate(247,689)" d="m0 0h2l12 21 1 4h-3v-2l-5-1-3-6-5-1-1-7z" fill="#ABD5DF"/>
<path transform="translate(471,391)" d="m0 0h7v1l-10 1 4 17 2 1-7 6h-2v-7l1-5h-5l-2-3 1-3 2-2 2-4z" fill="#36636E"/>
<path transform="translate(292,404)" d="m0 0 2 1v3l1 1v5l1 3-5-2h-3l2 3-2 1h-8l-4-1 2-5v-2l7-3z" fill="#9DC9D5"/>
<path transform="translate(658,584)" d="m0 0 12 1 3 4-7 4-9 3h-3l-1-5 2-1z" fill="#36636E"/>
<path transform="translate(657,696)" d="m0 0h6l9 3 1 1v-1h6l3 3-2 4v-2l-4 1v-3l-6 3-1-3-11 1-4 2v-6z" fill="#82ADB8"/>
<path transform="translate(622,217)" d="m0 0 2 1v2l3-1-2 6-3 1-7-1-14 2 1-4 9-4z" fill="#AAD4DF"/>
<path transform="translate(440,494)" d="m0 0h6l-2 5-4 11-2 1-3-1-2-4v-6l5-5z" fill="#81ACB7"/>
<path transform="translate(610,513)" d="m0 0 3 4-1 12-3 8-3-4-2-4v-10l5-5z" fill="#34606B"/>
<path transform="translate(762,658)" d="m0 0h13l2 3-1 4-3 1-7-3v9l-6-4 1-8z" fill="#B0D9E3"/>
<path transform="translate(740,688)" d="m0 0h12l1 7-10-1-3-3h-25l-22-1v-1z" fill="#36636E"/>
<path transform="translate(172,735)" d="m0 0 9 2 8 2 12 1 2 2-12 1-20 1v-6l6 1-5-3z" fill="#ACD6E0"/>
<path transform="translate(264,695)" d="m0 0 4 4 13 19 6 6v8l-3-1-1-4-7-9-12-21z" fill="#A7D1DC"/>
<path transform="translate(667,554)" d="m0 0 4 1 5 2-2 5-5 2h-7v-2l-6-1 4-3 5-1v-2z" fill="#325E69"/>
<path transform="translate(244,330)" d="m0 0h3l4 9 4 7v6h-3l-8-13v-3h-2v-5z" fill="#AED7E1"/>
<path transform="translate(596,689)" d="m0 0h20l3 2v5h-3l-1-4-1 4h-4v-5l-6 1v4h-10z" fill="#598590"/>
<path transform="translate(659,685)" d="m0 0 11 1 8 2v1l-14 1v1h-17l1 5h-2l-3-3v2h-2l-1-3 3-3 9-2 1-1h6z" fill="#36636E"/>
<path transform="translate(649,539)" d="m0 0 1 2 3 1-4 1 1 3-13 3-10 2 1-2h2l-1-3 5-4 1 2 5-2z" fill="#36636E"/>
<path transform="translate(307,422)" d="m0 0 4 1 1 8 5 5 5 3 7 8-3 1-7-8-6-2-5-3v-7l1-2-3-1z" fill="#98C5D1"/>
<path transform="translate(255,620)" d="m0 0h19v1h6l4 5-2 1-2-1-18-1-7-1z" fill="#98C5D1"/>
<path transform="translate(233,687)" d="m0 0 2 1v6l-2 5-1 10-3 3-2-4 1-8 3-11z" fill="#A7D2DC"/>
<path transform="translate(845,633)" d="m0 0h6v11l-2 3-5-1-3-4h2v-6z" fill="#234B55"/>
<path transform="translate(191,745)" d="m0 0h11v3l-12 6h-2v3h-7l1-3 6-3z" fill="#98C5D1"/>
<path transform="translate(229,336)" d="m0 0h5l-4 3 2 1 1 4-16 5h-2l1-4 9-6z" fill="#98C5D1"/>
<path transform="translate(431,249)" d="m0 0 4 4v19l-4 4z" fill="#98C5D1"/>
<path transform="translate(615,407)" d="m0 0 3 1-5 10-6 1-4-4-7-4 1-3 11 6 1-3 5-3z" fill="#ABD5DF"/>
<path transform="translate(409,565)" d="m0 0 9 2-1 5-2 1-4-1-1 3-1-2-6-2 2-5z" fill="#98C5D1"/>
<path transform="translate(264,497)" d="m0 0h1v17l-1 2-5-1-2-3 3-7 2-1v-4h2z" fill="#98C5D1"/>
<path transform="translate(628,230)" d="m0 0 1 2h2v4h13v1l-25 1h-4l-1-3 11-3h3z" fill="#A3CED9"/>
<path transform="translate(367,625)" d="m0 0h15l4 1v2l-6 3h-6l-6-2z" fill="#83AFBA"/>
<path transform="translate(662,707)" d="m0 0h2l3 3 5 1h9l-2 2-18 1-2 2-6-1 1-3 6-1v-3z" fill="#83AEB9"/>
<path transform="translate(576,536)" d="m0 0h1v10l-1 12-2 5-3 18h-1v-16l4-14v-8z" fill="#83AEB9"/>
<path transform="translate(692,495)" d="m0 0h6v14l-4-2v-2l-3-1v-7z" fill="#A6D0DB"/>
<path transform="translate(685,536)" d="m0 0 4 2 1 4-7 1-10-1 2-4 2-1h8z" fill="#234B55"/>
<path transform="translate(280,410)" d="m0 0h3v2h5l-3 2 5 3-2 2h-8l-4-1 2-5v-2z" fill="#98C5D1"/>
<path transform="translate(663,575)" d="m0 0h8l-3 1-1 4 2 1-4 1-6-1-7 1 3-5 7-1z" fill="#36636E"/>
<path transform="translate(171,611)" d="m0 0 15 2-2 4-4 1h-6l-3-2z" fill="#98C5D1"/>
<path transform="translate(239,322)" d="m0 0 8 5v3l-5 1-1 4-5 4v-7h4l-1-2z" fill="#94C1CD"/>
<path transform="translate(652,319)" d="m0 0h5l5 4-1 4-4 1-5-3-1-5z" fill="#B1DAE4"/>
<path transform="translate(548,415)" d="m0 0h1v6l-13 5-4-1 3-3 12-6z" fill="#234B55"/>
<path transform="translate(590,228)" d="m0 0h3v3h2v4l10 3-4 2v-2l-10 1-1-2v-6l-2-1z" fill="#97C3CF"/>
<path transform="translate(447,414)" d="m0 0h2l3 7-3 9h-3v-3l-2-1 3-9z" fill="#244C56"/>
<path transform="translate(454,322)" d="m0 0 5 2-1 5-9 2v-4l1-4z" fill="#34616C"/>
<path transform="translate(365,599)" d="m0 0h5l2 2v6l-4 2h-3z" fill="#AFD8E2"/>
<path transform="translate(572,592)" d="m0 0 1 4-1 2 2 1-1 8 1 3-3 8h-1v-17l1-8z" fill="#36636E"/>
<path transform="translate(616,482)" d="m0 0h17l-4 1v2l-6 2h-6l-2-4z" fill="#A3CED8"/>
<path transform="translate(741,643)" d="m0 0h5v5h-3v2h2l2 5h-3v2l-4 1 1-4-1-5z" fill="#36636E"/>
<path transform="translate(678,704)" d="m0 0h2l-1 5-2 1h-9l-2-1v-3l7-1z" fill="#234C56"/>
<path transform="translate(612,699)" d="m0 0h6v11l-5-1-2-9z" fill="#5D8A95"/>
<path transform="translate(203,676)" d="m0 0h12v3l-23 1 4-3z" fill="#9CC8D3"/>
<path transform="translate(461,338)" d="m0 0h8v3l-6 3-5-1-3-2 1-2z" fill="#34606B"/>
<path transform="translate(587,637)" d="m0 0 2 1 1 7 3 7 2 1v2l-4-2-4-6v-3l-3 1-1-7z" fill="#36636E"/>
<path transform="translate(624,478)" d="m0 0m-14 1h14v2h-11v8l-3 1z" fill="#A7D2DD"/>
<path transform="translate(471,353)" d="m0 0h2l-1 5-4 3-7 1-3-2v-2h6z" fill="#36636E"/>
<path transform="translate(585,689)" d="m0 0h11l-1 5-1 2h-3v-4l-19-1-1 2-1-3z" fill="#36636E"/>
<path transform="translate(574,392)" d="m0 0h2l2 4-2 5h-6v-8z" fill="#98C5D1"/>
<path transform="translate(265,339)" d="m0 0 12 2 1 6h-2v-3l-8 1-4-4z" fill="#AED8E2"/>
<path transform="translate(510,728)" d="m0 0 6 1h2v6l-4 1-5-4-3 1 1-4z" fill="#36636E"/>
<path transform="translate(525,450)" d="m0 0 13 1 5 3 6 5v5l-4-5-6-4-14-4z" fill="#234B55"/>
<path transform="translate(182,739)" d="m0 0 19 1 2 2-12 1-10-1-1-2z" fill="#A3CED9"/>
<path transform="translate(753,687)" d="m0 0h5l2 5-2 3h-5l-1-7z" fill="#91BCC7"/>
<path transform="translate(582,474)" d="m0 0 3 1 2 5-4 1-2-1v8l-5 3-2-2 5-2v-8l2-2 2 1v-2l-2-1z" fill="#A5D0DB"/>
<path transform="translate(570,469)" d="m0 0 8 5-1 4v-2h-2l1 3h-6z" fill="#9CC7D2"/>
<path transform="translate(665,556)" d="m0 0 2 1 1 5-6 2v-2l-6-1 4-3z" fill="#234B55"/>
<path transform="translate(255,730)" d="m0 0h17l2 3-7 1-12-3z" fill="#AED8E2"/>
<path transform="translate(579,265)" d="m0 0h2l-1 5-4 8h-1l-1-5-2 1 2-5 2-2 2 1z" fill="#9FCBD6"/>
<path transform="translate(596,689)" d="m0 0h5l2 7h-9z" fill="#84B0BB"/>
<path transform="translate(613,481)" d="m0 0h9v1l-6 1 1 3 3 2-7 3-4 3-2-1 5-4z" fill="#83AEB9"/>
<path transform="translate(267,410)" d="m0 0 4 1 1 4-4 4-6-3-5-2 1-2 1 1 9 1z" fill="#98C4D0"/>
<path transform="translate(574,272)" d="m0 0h1v9l-4 6h-1v-8l3-6z" fill="#A9D3DE"/>
<path transform="translate(482,580)" d="m0 0 2 1v4l-6 2-4-4 1-2z" fill="#36636E"/>
<path transform="translate(436,434)" d="m0 0 1 2 2 1 2 3-7 7-1-10h2z" fill="#36636E"/>
<path transform="translate(677,399)" d="m0 0h6l-4 4-7 4-1-4z" fill="#98C5D1"/>
<path transform="translate(622,217)" d="m0 0 2 1v2l3-1-2 6-3 1-6-2 4-2 2-3h-5v-1z" fill="#98C5D1"/>
<path transform="translate(622,689)" d="m0 0h5v4h2v3h-8z" fill="#85B0BB"/>
<path transform="translate(589,511)" d="m0 0 1 2-3 6-3 5-2 1-1 5-3 6-1-3 8-16z" fill="#83AEB9"/>
<path transform="translate(671,399)" d="m0 0 2 1-11 13-5 5-2-1 11-12z" fill="#98C5D1"/>
<path transform="translate(691,533)" d="m0 0h1v9h-2l-3-5-3 1-3-2 1-2h8z" fill="#36636E"/>
<path transform="translate(636,686)" d="m0 0 1 2 3 2-2 6-3-1h2v-4l-7 1-3 1v-4h7z" fill="#36636E"/>
<path transform="translate(233,687)" d="m0 0 2 1v6l-2 5-3-2v-6z" fill="#A4CFDA"/>
<path transform="translate(689,386)" d="m0 0h2l-1 3-5 4-3 3-5 1 4-3 3-6z" fill="#98C5D1"/>
<path transform="translate(478,615)" d="m0 0 2 1-3 7-5 1 1-3-2-3z" fill="#234B55"/>
<path transform="translate(266,313)" d="m0 0h8v4h-7l-4-2z" fill="#83AEB9"/>
<path transform="translate(631,493)" d="m0 0h2l-1 4-2 2-2 5-3-2 2-6z" fill="#315D67"/>
<path transform="translate(695,488)" d="m0 0h3v7l-5 1-1-5z" fill="#AFD8E2"/>
<path transform="translate(266,388)" d="m0 0 3 1 1 8 2 1h-3l-5-2 2-1-1-5z" fill="#98C5D1"/>
<path transform="translate(460,347)" d="m0 0 2 2-4 1-1 2 11-1-1 2-10 1-3-2 2-4z" fill="#315D68"/>
<path transform="translate(280,722)" d="m0 0 6 1 1 1v8l-3-1-1-4-3-3z" fill="#98C5D1"/>
<path transform="translate(663,652)" d="m0 0h5l1 12 2 1h-8l4-1-1-10-4-1z" fill="#36636E"/>
<path transform="translate(664,575)" d="m0 0h7l-3 1-1 4 2 1-4 1-3-1 1-5z" fill="#47737E"/>
<path transform="translate(458,369)" d="m0 0h3v2h2l1-2 6 1-1 3h-2l-1 2h-3z" fill="#234B55"/>
<path transform="translate(495,664)" d="m0 0 9 1h2v2l-3 2h-7l-2-4z" fill="#36636E"/>
<path transform="translate(658,570)" d="m0 0h7l8 2v1l-16 1z" fill="#36636E"/>
<path transform="translate(628,230)" d="m0 0 1 2h2v4h13v1h-19l3-2-2-3h2z" fill="#98C5D1"/>
<path transform="translate(685,695)" d="m0 0h7l-2 5-1 2h-3z" fill="#36636E"/>
<path transform="translate(240,669)" d="m0 0 7 1 1 3h-5l-4 2-1-4z" fill="#A1CDD8"/>
<path transform="translate(368,627)" d="m0 0 16 1-4 3h-6l-6-2z" fill="#98C5D1"/>
<path transform="translate(682,366)" d="m0 0h2l5 5 3 6-1 4-5-9-4-4z" fill="#98C5D1"/>
<path transform="translate(649,526)" d="m0 0 8 3v5l-5-2v-2l-3-1z" fill="#234B55"/>
<path transform="translate(641,703)" d="m0 0h4v7h-5v-6z" fill="#5B8792"/>
<path transform="translate(619,311)" d="m0 0h2l-1 3-4 1h-9v-2z" fill="#83AEB9"/>
<path transform="translate(653,556)" d="m0 0 2 3v2h-2l-1 4-3 3 1-7z" fill="#234B55"/>
<path transform="translate(633,528)" d="m0 0 1 2-4 7h-3l1-5 1-2z" fill="#36636E"/>
<path transform="translate(265,722)" d="m0 0h2l3 6h-6l-2-4z" fill="#98C5D1"/>
<path transform="translate(627,680)" d="m0 0 9 1 3 2-1 3-1-2-6-1z" fill="#36636E"/>
<path transform="translate(445,434)" d="m0 0 1 4-1 1-7-1 1-3z" fill="#244C56"/>
<path transform="translate(171,732)" d="m0 0 5 2 1 2h-4l5 3-3 1-4-2z" fill="#94C1CD"/>
<path transform="translate(612,699)" d="m0 0h6l-1 5-5-1z" fill="#84AFBA"/>
<path transform="translate(458,349)" d="m0 0h10l1 2-12 1z" fill="#83AEB9"/>
<path transform="translate(652,631)" d="m0 0 4 1-1 5-4-1z" fill="#36636E"/>
<path transform="translate(458,372)" d="m0 0 2 1-2 9h-3l1-6z" fill="#234B55"/>
</svg>
